# xmcd
#
# Track frame offsets:
#	150
#	35191
#	73037
#	108308
#	139266
#	168510
#	197851
#	228811
#	256934
#	286764
#	323301
#
# Disc length: 4771 seconds
#
# Revision: 0
# Processed by: cddbd v1.5.2PL0 Copyright (c) Steve Scherf et al.
# Submitted via: EZCDAudioConverter 7.0.6.1
#
DISCID=9812a10b
DTITLE=Bill Brewster Presents Tribal Rites 3/3
DYEAR=1900
DGENRE=
TTITLE0=Mother Tongue - Message Of Love
TTITLE1=B. McCarthy and Rasoul - Excursion 2
TTITLE2=Love From San Francisco - Keep Rockin' [Thumping House Mix]
TTITLE3=Larry Heard - Night Images [Swayzak Early Mid Afternoon Mix]
TTITLE4=Clifton King - Family Prayer
TTITLE5=Aural - Desire (Fabrice Africa Pain)
TTITLE6=Chicken Lips - Is That You Or Me [Ivan's Flute Dub]
TTITLE7=Swag - Primitive Urges 4 - Side C
TTITLE8=Maurizio - M4 A-Side
TTITLE9=Silverlining - Precision Spanner
TTITLE10=Kate-Olivia Martinez - Fire Walk With Me
EXTD=
EXTT0=
EXTT1=
EXTT2=
EXTT3=
EXTT4=
EXTT5=
EXTT6=
EXTT7=
EXTT8=
EXTT9=
EXTT10=
PLAYORDER=
